Coordinates
version=1
nRows=26
nColumns=24
inDegrees=yes

Units are S.I. units (second, meters, Newtons, ...)
Angles are in degrees.

endheader
time	pelvis_tilt	pelvis_list	pelvis_rotation	pelvis_tx	pelvis_ty	pelvis_tz	hip_flexion_r	hip_adduction_r	hip_rotation_r	knee_angle_r	ankle_angle_r	subtalar_angle_r	mtp_angle_r	hip_flexion_l	hip_adduction_l	hip_rotation_l	knee_angle_l	ankle_angle_l	subtalar_angle_l	mtp_angle_l	lumbar_extension	lumbar_bending	lumbar_rotation
      5.05500000	     33.09593701	     -1.94430800	     -1.67937397	     -0.24930579	      0.64341398	     -0.24047852	    -52.05743164	      2.08614884	    -10.65955136	    -22.79160410	     19.13320757	    -27.21737221	      0.00000000	     -6.71399883	     -2.84253243	     -5.77250712	     -6.85790059	      8.50594889	     15.76171248	      0.00000000	    -62.34310191	     -2.24481677	      9.47774624
      5.06000000	     33.23310748	     -1.95190046	     -2.01523352	     -0.24191955	      0.64330466	     -0.24110713	    -51.71644033	      1.49198777	    -11.27189598	    -24.76721343	     17.79600379	    -27.64133801	      0.00000000	     -6.99708768	     -2.65105915	     -5.59595382	     -7.48882939	      8.03506911	     15.49848882	      0.00000000	    -62.43864109	     -2.53176586	      9.38390339
      5.06500000	     33.49805792	     -1.89284728	     -2.36293752	     -0.23461944	      0.64330582	     -0.24178807	    -51.42181798	      0.82903824	    -11.87400315	    -26.80723470	     16.22332453	    -28.69369909	      0.00000000	     -7.35175172	     -2.34980254	     -5.26096246	     -8.35623555	      7.60205447	     14.84907570	      0.00000000	    -62.67467788	     -2.86050169	      9.32084551
      5.07000000	     33.73658869	     -1.76088689	     -2.69702802	     -0.22730618	      0.64338760	     -0.24248670	    -50.99671824	      0.08332673	    -12.61885593	    -28.97387718	     14.52258346	    -29.77904490	      0.00000000	     -7.64582622	     -1.96643413	     -4.99652219	     -9.36027553	      7.11522310	     14.26583654	      0.00000000	    -62.88541645	     -3.22204658	      9.10369098
      5.07500000	     33.99319459	     -1.54875367	     -2.99709568	     -0.22002458	      0.64352479	     -0.24326540	    -50.49973165	     -0.72173044	    -13.41115760	    -31.23513740	     12.65765283	    -31.10932505	      0.00000000	     -7.90858805	     -1.47696324	     -4.66470085	    -10.51015924	      6.63285963	     13.53507709	      0.00000000	    -63.12159550	     -3.58893617	      8.81275178
      5.08000000	     34.24747427	     -1.26996913	     -3.27241842	     -0.21273125	      0.64370641	     -0.24411172	    -49.93060209	     -1.58536457	    -14.23339680	    -33.55353576	     10.66460857	    -32.61420591	      0.00000000	     -8.12641604	     -0.89938941	     -4.26527926	    -11.78938031	      6.18867691	     12.72380970	      0.00000000	    -63.34814444	     -3.96205314	      8.44383961
      5.08500000	     34.49297301	     -0.92164010	     -3.48399538	     -0.20545353	      0.64389352	     -0.24501398	    -49.29051368	     -2.46678269	    -15.08344381	    -35.91550417	      8.57614473	    -34.33276544	      0.00000000	     -8.29689330	     -0.23820023	     -3.75122609	    -13.15906971	      5.83423231	     11.80522401	      0.00000000	    -63.56837517	     -4.32470163	      7.99094031
      5.09000000	     34.68237350	     -0.52463955	     -3.55696349	     -0.19821043	      0.64406182	     -0.24607468	    -48.55319432	     -3.30653887	    -16.03074039	    -38.28403311	      6.42539290	    -36.13334836	      0.00000000	     -8.34380485	      0.46439773	     -3.11192240	    -14.64708622	      5.55440009	     10.89160809	      0.00000000	    -63.74091675	     -4.57300545	      7.42340788
      5.09500000	     34.93212056	     -0.09948072	     -3.80723950	     -0.19093998	      0.64433488	     -0.24708568	    -47.81148532	     -4.33211888	    -16.77762976	    -40.69065709	      4.44248225	    -37.86109622	      0.00000000	     -8.52990466	      1.26958027	     -2.56436359	    -16.05660362	      5.29905669	      9.77172354	      0.00000000	    -63.94895543	     -4.96744843	      7.00140269
      5.10000000	     35.16164745	      0.34251749	     -3.96002493	     -0.18371177	      0.64461678	     -0.24814594	    -47.02423133	     -5.29374630	    -17.50324322	    -43.06440903	      2.50691294	    -39.58560815	      0.00000000	     -8.68770282	      2.08108205	     -1.94854390	    -17.47787476	      5.17432281	      8.71262362	      0.00000000	    -64.13732946	     -5.28211347	      6.51165750
      5.10500000	     35.34263139	      0.78527295	     -4.00028929	     -0.17650775	      0.64486616	     -0.24929889	    -46.17746095	     -6.16646924	    -18.20826040	    -45.38612872	      0.76010927	    -41.22080238	      0.00000000	     -8.79083934	      2.88215686	     -1.24909856	    -18.91175267	      5.26811336	      7.66670628	      0.00000000	    -64.27533500	     -5.48101941	      5.95616649
      5.11000000	     35.53466054	      1.22200922	     -4.10065604	     -0.16936962	      0.64522715	     -0.25040393	    -45.28670633	     -7.06930430	    -18.72617601	    -47.69867393	     -0.73618942	    -42.54858393	      0.00000000	     -8.98076449	      3.69703946	     -0.58720362	    -20.21102463	      5.31517033	      6.65570397	      0.00000000	    -64.42136004	     -5.71752467	      5.50252733
      5.11500000	     35.68387867	      1.61751869	     -4.10377820	     -0.16230128	      0.64558562	     -0.25151320	    -44.34343114	     -7.83562265	    -19.18461572	    -49.92714391	     -1.93442989	    -43.74009439	      0.00000000	     -9.15780324	      4.44121902	      0.09635059	    -21.46078750	      5.61176897	      5.69803041	      0.00000000	    -64.53203438	     -5.84965426	      5.04382965
      5.12000000	     35.82389254	      1.97337661	     -4.11315089	     -0.15531961	      0.64604416	     -0.25257175	    -43.35225610	     -8.54300108	    -19.49397074	    -52.09586664	     -2.83592666	    -44.62009622	      0.00000000	     -9.40278038	      5.13585147	      0.74456622	    -22.57032102	      5.95244280	      4.83651130	      0.00000000	    -64.63509758	     -5.95579633	      4.65073146
      5.12500000	     36.00848151	      2.28168858	     -4.15148299	     -0.14844968	      0.64665157	     -0.25351421	    -42.37053906	     -9.19289285	    -19.65697039	    -54.18514967	     -3.47758516	    -45.17856533	      0.00000000	     -9.79344106	      5.76485569	      1.28699579	    -23.50069376	      6.34380106	      4.10910158	      0.00000000	    -64.79266827	     -6.06195606	      4.31188579
      5.13000000	     36.04946965	      2.51863431	     -4.09614904	     -0.14165143	      0.64722860	     -0.25449894	    -41.22215311	     -9.66382808	    -19.74354255	    -56.16395889	     -3.68187805	    -45.61621467	      0.00000000	    -10.06635280	      6.28988311	      1.93017802	    -24.37545349	      6.91518505	      3.41868242	      0.00000000	    -64.79900490	     -6.03805700	      4.06997231
      5.13500000	     36.15899816	      2.70506940	     -4.07529361	     -0.13498274	      0.64798909	     -0.25535586	    -40.11466018	    -10.07700340	    -19.72431911	    -58.03747949	     -3.67356108	    -45.72303569	      0.00000000	    -10.52086061	      6.73535947	      2.42721951	    -25.04487126	      7.50972774	      2.89340681	      0.00000000	    -64.88988628	     -6.01720330	      3.84821592
      5.14000000	     36.28938608	      2.84189190	     -4.05117707	     -0.12845191	      0.64887533	     -0.25612110	    -39.00765907	    -10.39184296	    -19.62238640	    -59.78512819	     -3.40186868	    -45.60978398	      0.00000000	    -11.07524616	      7.09965648	      2.86075880	    -25.56144066	      8.11540900	      2.45747503	      0.00000000	    -65.01620923	     -5.95607456	      3.64416790
      5.14500000	     36.38023137	      2.92068357	     -3.99877793	     -0.12200122	      0.64984537	     -0.25681471	    -37.85317310	    -10.58395156	    -19.47163033	    -61.38556041	     -2.80813159	    -45.29337265	      0.00000000	    -11.66202292	      7.36039579	      3.25419296	    -25.93973987	      8.81291074	      2.18978123	      0.00000000	    -65.10048397	     -5.85478755	      3.53157305
      5.15000000	     36.43230261	      2.96289791	     -3.93872053	     -0.11562540	      0.65089764	     -0.25747757	    -36.64354402	    -10.71226236	    -19.30681145	    -62.86072840	     -2.07839916	    -44.83186433	      0.00000000	    -12.27337762	      7.54815894	      3.56051583	    -26.18483434	      9.53260882	      2.04459481	      0.00000000	    -65.14676775	     -5.71853678	      3.47380207
      5.15500000	     36.51339492	      2.97614717	     -3.85087544	     -0.10936066	      0.65207433	     -0.25798336	    -35.47709456	    -10.71650332	    -19.10227027	    -64.15388729	     -1.12454729	    -44.26897762	      0.00000000	    -12.98373866	      7.65732053	      3.85499633	    -26.29027488	     10.21818439	      2.01186951	      0.00000000	    -65.23583477	     -5.56698972	      3.39874006
      5.16000000	     36.56322938	      2.96552748	     -3.76636741	     -0.10315857	      0.65330914	     -0.25848473	    -34.27145698	    -10.69275734	    -18.91605754	    -65.31947623	     -0.07073840	    -43.56491279	      0.00000000	    -13.71306860	      7.71601371	      4.06863811	    -26.28284963	     10.90485554	      2.07284611	      0.00000000	    -65.29438589	     -5.39569055	      3.34982867
      5.16500000	     36.59399287	      2.94263576	     -3.66354569	     -0.09701066	      0.65461114	     -0.25891928	    -33.05838056	    -10.60084692	    -18.72383741	    -66.32193102	      1.10358098	    -42.77385125	      0.00000000	    -14.47379198	      7.72048977	      4.22299178	    -26.16099031	     11.56260130	      2.23368839	      0.00000000	    -65.33278132	     -5.21041192	      3.30678842
      5.17000000	     36.59546227	      2.90208610	     -3.57159270	     -0.09089945	      0.65595104	     -0.25933923	    -31.81738500	    -10.49082265	    -18.54601896	    -67.18761632	      2.33051801	    -41.88830942	      0.00000000	    -15.24541345	      7.68374515	      4.28342268	    -25.94366146	     12.19706293	      2.46507359	      0.00000000	    -65.33349288	     -5.00580466	      3.26227409
      5.17500000	     36.59591557	      2.85971357	     -3.45293110	     -0.08482531	      0.65734062	     -0.25967495	    -30.60767504	    -10.31757313	    -18.38655710	    -67.87249402	      3.61107582	    -41.02350990	      0.00000000	    -16.05447287	      7.60441454	      4.32090550	    -25.63862635	     12.77952635	      2.78339458	      0.00000000	    -65.34042146	     -4.80479608	      3.20070262
      5.18000000	     36.58934662	      2.81752111	     -3.32017327	     -0.07877203	      0.65875980	     -0.25996283	    -29.41977013	    -10.11244666	    -18.25432085	    -68.39291842	      4.92216477	    -40.14222692	      0.00000000	    -16.88837072	      7.49460357	      4.31820427	    -25.25744692	     13.31025779	      3.17730491	      0.00000000	    -65.33080421	     -4.59828562	      3.12253939
